<?xml version="1.0" standalone="no"?>
<!DOCTYPE svg PUBLIC "-//W3C//DTD SVG 20010904//EN"
 "http://www.w3.org/TR/2001/REC-SVG-20010904/DTD/svg10.dtd">
<svg version="1.0" xmlns="http://www.w3.org/2000/svg"
 width="512.000000pt" height="512.000000pt" viewBox="0 0 512.000000 512.000000"
 preserveAspectRatio="xMidYMid meet">
<metadata>
Created by potrace 1.14, written by Peter Selinger 2001-2017
</metadata>
<g transform="translate(0.000000,512.000000) scale(0.100000,-0.100000)"
fill="#000000" stroke="none">
<path d="M1441 5091 c-28 -28 -47 -67 -68 -141 -25 -92 -26 -436 0 -562 56
-279 162 -498 239 -498 47 0 86 62 114 185 23 97 26 396 5 515 -42 242 -124
456 -194 505 -30 21 -73 19 -96 -4z m102 -41 c66 -58 139 -246 174 -450 24
-136 24 -410 0 -510 -30 -129 -74 -183 -128 -157 -57 29 -128 166 -175 337
-83 297 -69 684 28 787 29 31 61 29 101 -7z"/>
<path d="M4700 4909 c-214 -22 -408 -110 -581 -263 -96 -85 -175 -178 -368
-434 -171 -226 -285 -348 -382 -405 -92 -54 -128 -62 -224 -49 -112 15 -206
49 -461 168 -275 128 -355 156 -451 157 -63 0 -79 -4 -120 -29 -32 -20 -49
-38 -51 -54 l-4 -23 31 25 c45 38 94 51 170 45 87 -6 160 -32 376 -134 329
-155 440 -193 567 -193 77 0 114 14 213 85 91 65 185 170 367 411 186 246 283
355 400 448 144 116 350 199 524 213 73 5 84 8 84 24 0 11 -1 18 -2 18 -2 -1
-41 -6 -88 -10z"/>
<path d="M2636 4859 c-232 -38 -486 -217 -684 -481 -89 -118 -155 -224 -150
-239 2 -7 19 12 38 42 214 340 477 564 740 630 114 29 255 23 353 -14 137 -53
262 -156 355 -293 41 -61 57 -74 92 -74 27 0 80 48 80 73 -1 20 -2 20 -11 4
-14 -25 -67 -49 -90 -42 -11 4 -38 32 -61 63 -73 99 -121 152 -183 199 -152
115 -315 160 -479 132z"/>
<path d="M2720 4579 c-190 -28 -406 -192 -676 -514 -124 -149 -147 -180 -143
-194 2 -6 49 44 104 111 124 153 360 392 440 445 171 115 315 147 470 108 76
-20 220 -89 309 -149 38 -25 73 -46 78 -46 42 0 -84 93 -221 164 -128 66 -251
92 -361 75z"/>
<path d="M4716 4569 c-198 -32 -515 -252 -774 -534 -89 -98 -225 -297 -220
-322 3 -13 10 -7 26 23 43 84 179 253 296 369 187 185 385 326 558 396 71 29
95 34 166 34 58 0 82 4 82 12 0 11 -17 18 -70 28 -8 1 -37 -1 -64 -6z"/>
<path d="M5101 4244 c-6 -22 -31 -154 -56 -294 -64 -355 -95 -469 -165 -610
-71 -141 -127 -205 -295 -332 -133 -102 -230 -271 -466 -813 -350 -806 -720
-1399 -1123 -1800 -362 -360 -686 -448 -939 -257 -71 54 -106 103 -137 187
-20 58 -21 58 -15 17 8 -61 56 -151 107 -200 48 -47 150 -104 218 -122 62 -17
175 -14 251 5 358 91 806 567 1233 1308 154 267 245 456 463 952 220 501 273
585 465 732 231 177 316 367 413 923 20 112 43 233 51 268 16 69 12 99 -5 36z"/>
<path d="M4888 4240 c-194 -33 -384 -140 -615 -348 -490 -440 -570 -503 -755
-592 -104 -51 -292 -112 -425 -139 -181 -37 -484 -24 -683 29 -45 12 -174 70
-325 145 -286 142 -416 189 -577 211 -407 55 -753 -124 -1079 -559 -136 -181
-296 -442 -287 -469 2 -6 21 18 41 54 56 100 175 278 187 278 5 0 8 -15 6 -32
-10 -74 -8 -272 2 -276 6 -2 13 2 17 7 4 7 -1 9 -12 5 -10 -3 -7 1 7 9 14 9
25 20 25 27 0 6 7 15 15 20 8 5 11 10 5 10 -5 0 19 28 55 62 36 34 56 56 45
48 -12 -8 6 10 40 40 33 30 80 75 104 100 24 25 38 36 31 25 -8 -11 1 -6 20
11 52 46 110 88 110 78 0 -4 7 1 16 12 8 10 12 13 9 6 -6 -11 -3 -12 14 -3 11
7 21 14 21 17 0 3 -5 2 -10 -1 -6 -3 -10 -4 -10 -1 0 3 14 13 31 22 17 8 28
11 25 5 -4 -7 -1 -8 8 -5 9 3 13 10 10 15 -3 5 1 6 9 3 8 -3 21 1 28 8 8 7 19
13 24 13 6 1 43 11 83 24 40 13 82 21 92 18 12 -3 18 -1 14 5 -4 6 21 8 72 5
52 -4 65 -3 39 2 -37 7 -34 8 25 9 49 0 59 -2 40 -9 -16 -6 0 -7 48 -3 46 3
72 2 72 -5 0 -6 7 -8 15 -5 8 4 57 -4 108 -17 50 -13 98 -23 105 -23 6 1 12
-3 12 -8 0 -6 7 -8 15 -4 8 3 15 1 15 -5 0 -6 7 -8 16 -5 9 4 13 2 8 -5 -4 -8
1 -9 16 -4 17 5 21 4 15 -6 -6 -9 -3 -11 8 -6 10 3 17 2 17 -3 0 -5 7 -6 17
-3 12 5 14 3 8 -7 -6 -10 -4 -12 8 -7 10 3 17 2 17 -4 0 -6 4 -8 9 -5 14 9 42
-5 34 -17 -3 -6 -1 -7 5 -3 6 4 42 -9 80 -28 38 -19 72 -32 76 -29 3 4 6 1 6
-6 0 -7 5 -9 10 -6 6 3 10 2 10 -4 0 -6 10 -15 21 -22 15 -7 19 -8 15 0 -5 7
-1 9 8 5 9 -3 14 -10 11 -14 -3 -4 2 -11 11 -14 8 -3 12 -2 9 4 -9 15 -1 13
49 -12 25 -12 42 -26 39 -31 -3 -6 -1 -7 5 -3 12 7 135 -32 140 -45 2 -4 12
-4 24 -1 13 3 19 1 15 -5 -5 -7 1 -9 15 -5 15 3 19 2 14 -7 -6 -9 0 -10 20 -5
21 5 25 4 19 -6 -6 -10 -4 -12 9 -7 9 4 58 0 109 -9 72 -13 124 -15 242 -9 83
4 168 7 189 7 29 0 35 2 25 10 -10 7 -6 8 14 3 21 -4 27 -3 21 6 -5 9 -1 10
14 7 14 -4 20 -2 15 5 -4 6 2 8 15 5 12 -4 22 -2 22 2 0 5 13 11 30 15 16 3
47 15 70 26 22 11 46 17 52 13 7 -5 8 -3 3 6 -6 10 -4 12 9 7 11 -5 15 -3 10
5 -5 8 -2 9 10 5 11 -5 15 -3 10 5 -5 8 -2 9 10 5 10 -4 15 -3 11 3 -7 11 32
33 45 25 5 -3 12 0 16 6 5 8 3 9 -6 4 -9 -6 -11 -4 -6 4 5 7 15 10 24 6 9 -3
13 -3 9 1 -9 9 94 75 105 68 5 -3 7 0 6 8 -2 7 5 13 14 13 10 0 23 7 30 15 11
12 10 12 -7 1 -11 -8 -7 -2 8 13 16 14 32 24 37 21 4 -3 14 3 21 13 12 15 12
16 -1 7 -21 -14 8 12 57 50 21 16 41 29 44 28 4 -1 17 9 29 22 13 14 19 25 15
25 -5 0 15 25 45 55 29 30 56 52 60 50 4 -2 18 7 30 20 13 14 19 25 15 25 -5
0 13 22 40 50 26 27 52 47 55 45 4 -3 16 5 26 18 l19 22 -25 -20 c-14 -11 11
17 55 63 79 81 93 94 79 70 -4 -7 14 10 40 37 26 28 44 43 40 35 -4 -8 14 5
40 30 25 24 46 40 46 35 0 -6 12 4 26 20 14 17 22 23 19 15 -4 -8 3 -4 15 10
12 14 19 18 15 10 -4 -8 3 -4 14 9 12 13 21 19 21 15 0 -5 7 0 15 10 8 11 15
17 15 13 0 -4 19 5 42 20 24 14 49 26 55 26 7 0 13 4 13 9 0 5 5 6 10 3 6 -3
10 -1 10 5 0 6 5 8 10 5 6 -3 10 -1 10 5 0 6 4 9 9 5 14 -8 61 16 54 28 -3 5
4 7 18 3 13 -3 20 -4 14 -1 -8 4 -11 140 -5 247 0 8 92 28 130 28 23 0 30 5
30 20 0 22 -12 23 -92 10z m-868 -903 c0 -2 -10 -12 -22 -23 l-23 -19 19 23
c18 21 26 27 26 19z m-1840 -92 c0 -10 -16 -4 -40 16 l-25 20 33 -16 c17 -8
32 -18 32 -20z m1690 -58 c0 -2 -10 -12 -22 -23 l-23 -19 19 23 c18 21 26 27
26 19z"/>
<path d="M1180 4017 c-331 -199 -550 -373 -733 -587 -214 -249 -324 -475 -391
-804 -37 -178 -62 -414 -47 -429 9 -9 14 -9 21 3 7 11 5 16 -6 18 -16 4 -15
40 12 225 70 485 219 779 565 1112 163 157 374 310 624 455 131 75 118 65 113
84 -2 12 -39 -6 -158 -77z"/>
<path d="M4753 3746 c-177 -85 -358 -237 -510 -429 -14 -17 7 4 47 48 172 187
285 279 445 360 119 61 132 75 18 21z"/>
<path d="M4902 3726 c-40 -75 -114 -148 -276 -270 -268 -203 -385 -349 -626
-781 -40 -71 -75 -133 -79 -137 -3 -4 -6 73 -6 172 l0 178 33 43 33 44 -34
-37 c-19 -21 -36 -38 -39 -38 -3 0 -8 19 -12 42 -12 71 -41 126 -72 134 -70
18 -151 -160 -210 -462 -8 -42 -214 -163 -380 -223 -117 -43 -233 -61 -384
-61 -280 0 -449 59 -817 283 -341 207 -558 280 -769 256 -199 -22 -377 -122
-580 -324 l-100 -100 95 90 c170 161 292 241 452 296 85 29 264 37 365 16 151
-32 372 -137 614 -290 304 -194 561 -264 866 -236 171 16 388 96 544 200 47
32 86 56 87 56 1 -1 -5 -49 -13 -107 -7 -58 -14 -142 -14 -187 l0 -83 -37 -16
c-344 -147 -579 -201 -833 -191 -146 6 -339 36 -435 67 -33 11 -92 39 -130 61
-39 23 -149 81 -245 130 -336 169 -606 230 -822 185 -75 -17 -194 -69 -263
-116 -146 -101 -316 -306 -487 -590 -82 -136 -190 -340 -185 -353 2 -6 25 29
52 78 240 447 453 726 650 850 55 35 156 78 225 96 60 16 260 16 335 0 185
-40 441 -149 750 -321 205 -113 606 -155 902 -94 148 30 271 72 511 171 9 4
12 -12 12 -58 1 -133 45 -290 86 -306 81 -31 183 219 229 562 l17 120 95 170
c243 432 358 577 608 766 61 45 132 101 158 123 77 66 162 188 155 222 -2 8
-13 -5 -26 -30z m-1059 -694 c75 -82 85 -445 23 -783 -51 -276 -134 -452 -198
-418 -150 81 -66 1022 107 1195 29 29 46 30 68 6z"/>
<path d="M4173 3233 c-46 -55 -102 -133 -86 -118 6 6 32 37 58 70 26 33 55 68
63 78 8 9 13 17 9 17 -3 0 -23 -21 -44 -47z"/>
<path d="M4034 3053 c-51 -64 -57 -73 -52 -73 3 0 26 27 51 60 26 33 45 60 43
60 -3 0 -22 -21 -42 -47z"/>
<path d="M2250 2840 c8 -5 20 -10 25 -10 6 0 3 5 -5 10 -8 5 -19 10 -25 10 -5
0 -3 -5 5 -10z"/>
<path d="M2578 2733 c7 -3 16 -2 19 1 4 3 -2 6 -13 5 -11 0 -14 -3 -6 -6z"/>
<path d="M2628 2723 c7 -3 16 -2 19 1 4 3 -2 6 -13 5 -11 0 -14 -3 -6 -6z"/>
<path d="M3068 2723 c7 -3 16 -2 19 1 4 3 -2 6 -13 5 -11 0 -14 -3 -6 -6z"/>
<path d="M2683 2713 c9 -2 23 -2 30 0 6 3 -1 5 -18 5 -16 0 -22 -2 -12 -5z"/>
<path d="M3003 2713 c9 -2 23 -2 30 0 6 3 -1 5 -18 5 -16 0 -22 -2 -12 -5z"/>
<path d="M2803 2703 c32 -2 81 -2 110 0 29 2 3 3 -58 3 -60 0 -84 -1 -52 -3z"/>
<path d="M524 2373 c-27 -31 -44 -54 -37 -50 14 9 97 107 90 107 -2 0 -26 -26
-53 -57z"/>
<path d="M459 2293 c-13 -16 -12 -17 4 -4 9 7 17 15 17 17 0 8 -8 3 -21 -13z"/>
<path d="M429 2253 c-13 -16 -12 -17 4 -4 9 7 17 15 17 17 0 8 -8 3 -21 -13z"/>
<path d="M399 2213 c-13 -16 -12 -17 4 -4 9 7 17 15 17 17 0 8 -8 3 -21 -13z"/>
<path d="M369 2173 c-13 -16 -12 -17 4 -4 9 7 17 15 17 17 0 8 -8 3 -21 -13z"/>
<path d="M1080 2141 c-79 -24 -171 -93 -295 -222 -329 -341 -597 -863 -628
-1224 -5 -57 -4 -58 4 -15 6 25 17 81 25 125 45 235 187 541 375 807 213 300
434 498 559 498 27 0 40 4 40 14 0 24 -33 31 -80 17z"/>
<path d="M1253 1891 c-191 -52 -348 -190 -522 -456 -116 -176 -351 -673 -351
-739 0 -11 23 35 51 104 28 69 83 193 124 277 283 587 574 839 911 792 170
-23 309 -93 654 -330 351 -240 440 -290 597 -339 117 -36 293 -39 293 -5 0 11
-22 14 -102 14 -217 0 -362 68 -803 375 -334 233 -503 312 -689 321 -70 4
-107 1 -163 -14z"/>
<path d="M3302 1610 c-82 -98 -148 -205 -294 -479 -253 -475 -367 -620 -557
-713 -79 -39 -92 -42 -188 -46 -75 -3 -103 -8 -103 -17 0 -20 68 -27 142 -16
130 21 203 58 310 159 129 121 206 238 408 617 138 259 222 393 299 477 31 34
51 65 49 75 -2 13 -20 -3 -66 -57z"/>
</g>
</svg>
